<svg id="visual" viewBox="0 0 1920 1080" width="1920" height="1080" xmlns="http://www.w3.org/2000/svg" xmlns:xlink="http://www.w3.org/1999/xlink" version="1.1"><rect x="0" y="0" width="1920" height="1080" fill="#f6fbf9"></rect><path d="M0 663L45.7 664.3C91.3 665.7 182.7 668.3 274.2 669C365.7 669.7 457.3 668.3 548.8 682.7C640.3 697 731.7 727 823 741.8C914.3 756.7 1005.7 756.3 1097 761.3C1188.3 766.3 1279.7 776.7 1371.2 764.3C1462.7 752 1554.3 717 1645.8 694.8C1737.3 672.7 1828.7 663.3 1874.3 658.7L1920 654L1920 1081L1874.3 1081C1828.7 1081 1737.3 1081 1645.8 1081C1554.3 1081 1462.7 1081 1371.2 1081C1279.7 1081 1188.3 1081 1097 1081C1005.7 1081 914.3 1081 823 1081C731.7 1081 640.3 1081 548.8 1081C457.3 1081 365.7 1081 274.2 1081C182.7 1081 91.3 1081 45.7 1081L0 1081Z" fill="#49eeab"></path><path d="M0 742L45.7 756.8C91.3 771.7 182.7 801.3 274.2 794.7C365.7 788 457.3 745 548.8 740.8C640.3 736.7 731.7 771.3 823 790.7C914.3 810 1005.7 814 1097 808.5C1188.3 803 1279.7 788 1371.2 789C1462.7 790 1554.3 807 1645.8 808.5C1737.3 810 1828.7 796 1874.3 789L1920 782L1920 1081L1874.3 1081C1828.7 1081 1737.3 1081 1645.8 1081C1554.3 1081 1462.7 1081 1371.2 1081C1279.7 1081 1188.3 1081 1097 1081C1005.7 1081 914.3 1081 823 1081C731.7 1081 640.3 1081 548.8 1081C457.3 1081 365.7 1081 274.2 1081C182.7 1081 91.3 1081 45.7 1081L0 1081Z" fill="#4ae9a8"></path><path d="M0 839L45.7 829.3C91.3 819.7 182.7 800.3 274.2 787.2C365.7 774 457.3 767 548.8 770.5C640.3 774 731.7 788 823 802.8C914.3 817.7 1005.7 833.3 1097 829.8C1188.3 826.3 1279.7 803.7 1371.2 789.7C1462.7 775.7 1554.3 770.3 1645.8 779.5C1737.3 788.7 1828.7 812.3 1874.3 824.2L1920 836L1920 1081L1874.3 1081C1828.7 1081 1737.3 1081 1645.8 1081C1554.3 1081 1462.7 1081 1371.2 1081C1279.7 1081 1188.3 1081 1097 1081C1005.7 1081 914.3 1081 823 1081C731.7 1081 640.3 1081 548.8 1081C457.3 1081 365.7 1081 274.2 1081C182.7 1081 91.3 1081 45.7 1081L0 1081Z" fill="#4ae3a5"></path><path d="M0 773L45.7 794.5C91.3 816 182.7 859 274.2 863C365.7 867 457.3 832 548.8 808.7C640.3 785.3 731.7 773.7 823 771.3C914.3 769 1005.7 776 1097 781.7C1188.3 787.3 1279.7 791.7 1371.2 793.8C1462.7 796 1554.3 796 1645.8 805C1737.3 814 1828.7 832 1874.3 841L1920 850L1920 1081L1874.3 1081C1828.7 1081 1737.3 1081 1645.8 1081C1554.3 1081 1462.7 1081 1371.2 1081C1279.7 1081 1188.3 1081 1097 1081C1005.7 1081 914.3 1081 823 1081C731.7 1081 640.3 1081 548.8 1081C457.3 1081 365.7 1081 274.2 1081C182.7 1081 91.3 1081 45.7 1081L0 1081Z" fill="#4bdea2"></path><path d="M0 796L45.7 807.5C91.3 819 182.7 842 274.2 844.7C365.7 847.3 457.3 829.7 548.8 817.5C640.3 805.3 731.7 798.7 823 816C914.3 833.3 1005.7 874.7 1097 874.7C1188.3 874.7 1279.7 833.3 1371.2 818.8C1462.7 804.3 1554.3 816.7 1645.8 840.8C1737.3 865 1828.7 901 1874.3 919L1920 937L1920 1081L1874.3 1081C1828.7 1081 1737.3 1081 1645.8 1081C1554.3 1081 1462.7 1081 1371.2 1081C1279.7 1081 1188.3 1081 1097 1081C1005.7 1081 914.3 1081 823 1081C731.7 1081 640.3 1081 548.8 1081C457.3 1081 365.7 1081 274.2 1081C182.7 1081 91.3 1081 45.7 1081L0 1081Z" fill="#4bd99f"></path><path d="M0 935L45.7 927.7C91.3 920.3 182.7 905.7 274.2 895.7C365.7 885.7 457.3 880.3 548.8 881.7C640.3 883 731.7 891 823 906.8C914.3 922.7 1005.7 946.3 1097 954.3C1188.3 962.3 1279.7 954.7 1371.2 953.5C1462.7 952.3 1554.3 957.7 1645.8 949.7C1737.3 941.7 1828.7 920.3 1874.3 909.7L1920 899L1920 1081L1874.3 1081C1828.7 1081 1737.3 1081 1645.8 1081C1554.3 1081 1462.7 1081 1371.2 1081C1279.7 1081 1188.3 1081 1097 1081C1005.7 1081 914.3 1081 823 1081C731.7 1081 640.3 1081 548.8 1081C457.3 1081 365.7 1081 274.2 1081C182.7 1081 91.3 1081 45.7 1081L0 1081Z" fill="#4bd49c"></path><path d="M0 976L45.7 970.7C91.3 965.3 182.7 954.7 274.2 949.3C365.7 944 457.3 944 548.8 938.8C640.3 933.7 731.7 923.3 823 931.2C914.3 939 1005.7 965 1097 963.2C1188.3 961.3 1279.7 931.7 1371.2 916.2C1462.7 900.7 1554.3 899.3 1645.8 899.3C1737.3 899.3 1828.7 900.7 1874.3 901.3L1920 902L1920 1081L1874.3 1081C1828.7 1081 1737.3 1081 1645.8 1081C1554.3 1081 1462.7 1081 1371.2 1081C1279.7 1081 1188.3 1081 1097 1081C1005.7 1081 914.3 1081 823 1081C731.7 1081 640.3 1081 548.8 1081C457.3 1081 365.7 1081 274.2 1081C182.7 1081 91.3 1081 45.7 1081L0 1081Z" fill="#4cce99"></path><path d="M0 1018L45.7 1005.3C91.3 992.7 182.7 967.3 274.2 968.3C365.7 969.3 457.3 996.7 548.8 1006C640.3 1015.3 731.7 1006.7 823 993.5C914.3 980.3 1005.7 962.7 1097 959C1188.3 955.3 1279.7 965.7 1371.2 971.3C1462.7 977 1554.3 978 1645.8 985C1737.3 992 1828.7 1005 1874.3 1011.5L1920 1018L1920 1081L1874.3 1081C1828.7 1081 1737.3 1081 1645.8 1081C1554.3 1081 1462.7 1081 1371.2 1081C1279.7 1081 1188.3 1081 1097 1081C1005.7 1081 914.3 1081 823 1081C731.7 1081 640.3 1081 548.8 1081C457.3 1081 365.7 1081 274.2 1081C182.7 1081 91.3 1081 45.7 1081L0 1081Z" fill="#4cc996"></path><path d="M0 1007L45.7 1005.2C91.3 1003.3 182.7 999.7 274.2 1008.2C365.7 1016.7 457.3 1037.3 548.8 1038C640.3 1038.7 731.7 1019.3 823 1019.5C914.3 1019.7 1005.7 1039.3 1097 1041.3C1188.3 1043.3 1279.7 1027.7 1371.2 1026.5C1462.7 1025.3 1554.3 1038.7 1645.8 1045C1737.3 1051.3 1828.7 1050.7 1874.3 1050.3L1920 1050L1920 1081L1874.3 1081C1828.7 1081 1737.3 1081 1645.8 1081C1554.3 1081 1462.7 1081 1371.2 1081C1279.7 1081 1188.3 1081 1097 1081C1005.7 1081 914.3 1081 823 1081C731.7 1081 640.3 1081 548.8 1081C457.3 1081 365.7 1081 274.2 1081C182.7 1081 91.3 1081 45.7 1081L0 1081Z" fill="#4cc493"></path></svg>