<svg id="visual" viewBox="0 0 1920 1080" width="1920" height="1080" xmlns="http://www.w3.org/2000/svg" xmlns:xlink="http://www.w3.org/1999/xlink" version="1.1"><rect x="0" y="0" width="1920" height="1080" fill="#f6fbf9"></rect><defs><linearGradient id="grad1_0" x1="43.8%" y1="100%" x2="100%" y2="0%"><stop offset="14.444444444444446%" stop-color="#49eeab" stop-opacity="1"></stop><stop offset="85.55555555555554%" stop-color="#49eeab" stop-opacity="1"></stop></linearGradient></defs><defs><linearGradient id="grad1_1" x1="43.8%" y1="100%" x2="100%" y2="0%"><stop offset="14.444444444444446%" stop-color="#49eeab" stop-opacity="1"></stop><stop offset="85.55555555555554%" stop-color="#8ef4c8" stop-opacity="1"></stop></linearGradient></defs><defs><linearGradient id="grad1_2" x1="43.8%" y1="100%" x2="100%" y2="0%"><stop offset="14.444444444444446%" stop-color="#c4f8e2" stop-opacity="1"></stop><stop offset="85.55555555555554%" stop-color="#8ef4c8" stop-opacity="1"></stop></linearGradient></defs><defs><linearGradient id="grad1_3" x1="43.8%" y1="100%" x2="100%" y2="0%"><stop offset="14.444444444444446%" stop-color="#c4f8e2" stop-opacity="1"></stop><stop offset="85.55555555555554%" stop-color="#f6fbf9" stop-opacity="1"></stop></linearGradient></defs><defs><linearGradient id="grad2_0" x1="0%" y1="100%" x2="56.3%" y2="0%"><stop offset="14.444444444444446%" stop-color="#49eeab" stop-opacity="1"></stop><stop offset="85.55555555555554%" stop-color="#49eeab" stop-opacity="1"></stop></linearGradient></defs><defs><linearGradient id="grad2_1" x1="0%" y1="100%" x2="56.3%" y2="0%"><stop offset="14.444444444444446%" stop-color="#8ef4c8" stop-opacity="1"></stop><stop offset="85.55555555555554%" stop-color="#49eeab" stop-opacity="1"></stop></linearGradient></defs><defs><linearGradient id="grad2_2" x1="0%" y1="100%" x2="56.3%" y2="0%"><stop offset="14.444444444444446%" stop-color="#8ef4c8" stop-opacity="1"></stop><stop offset="85.55555555555554%" stop-color="#c4f8e2" stop-opacity="1"></stop></linearGradient></defs><defs><linearGradient id="grad2_3" x1="0%" y1="100%" x2="56.3%" y2="0%"><stop offset="14.444444444444446%" stop-color="#f6fbf9" stop-opacity="1"></stop><stop offset="85.55555555555554%" stop-color="#c4f8e2" stop-opacity="1"></stop></linearGradient></defs><g transform="translate(1920, 1080)"><path d="M-594 0C-597 -67.7 -599.9 -135.4 -564.9 -183.6C-529.9 -231.7 -456.9 -260.2 -411 -298.6C-365 -336.9 -346.1 -385.1 -312.7 -430.4C-279.3 -475.7 -231.6 -518.2 -177.1 -545C-122.5 -571.7 -61.3 -582.9 0 -594L0 0Z" fill="#ddfaee"></path><path d="M-445.5 0C-447.7 -50.8 -449.9 -101.6 -423.7 -137.7C-397.4 -173.8 -342.7 -195.2 -308.2 -223.9C-273.8 -252.7 -259.5 -288.8 -234.5 -322.8C-209.5 -356.8 -173.7 -388.6 -132.8 -408.7C-91.9 -428.8 -46 -437.2 0 -445.5L0 0Z" fill="#a9f6d6"></path><path d="M-297 0C-298.5 -33.9 -300 -67.7 -282.5 -91.8C-265 -115.8 -228.5 -130.1 -205.5 -149.3C-182.5 -168.5 -173 -192.5 -156.4 -215.2C-139.7 -237.9 -115.8 -259.1 -88.5 -272.5C-61.3 -285.9 -30.6 -291.4 0 -297L0 0Z" fill="#6ff1ba"></path><path d="M-148.5 0C-149.2 -16.9 -150 -33.9 -141.2 -45.9C-132.5 -57.9 -114.2 -65.1 -102.7 -74.6C-91.3 -84.2 -86.5 -96.3 -78.2 -107.6C-69.8 -118.9 -57.9 -129.5 -44.3 -136.2C-30.6 -142.9 -15.3 -145.7 0 -148.5L0 0Z" fill="#49eeab"></path></g><g transform="translate(0, 0)"><path d="M594 0C543.1 47.2 492.2 94.3 481.2 156.4C470.3 218.4 499.4 295.4 480.6 349.1C461.7 402.9 394.9 433.4 338 465.2C281 496.9 233.9 529.9 179.2 551.6C124.5 573.3 62.3 583.6 0 594L0 0Z" fill="#ddfaee"></path><path d="M445.5 0C407.3 35.4 369.1 70.7 360.9 117.3C352.7 163.8 374.6 221.5 360.4 261.9C346.3 302.2 296.2 325.1 253.5 348.9C210.8 372.7 175.4 397.5 134.4 413.7C93.4 430 46.7 437.7 0 445.5L0 0Z" fill="#a9f6d6"></path><path d="M297 0C271.5 23.6 246.1 47.2 240.6 78.2C235.2 109.2 249.7 147.7 240.3 174.6C230.9 201.4 197.5 216.7 169 232.6C140.5 248.5 117 265 89.6 275.8C62.3 286.6 31.1 291.8 0 297L0 0Z" fill="#6ff1ba"></path><path d="M148.5 0C135.8 11.8 123 23.6 120.3 39.1C117.6 54.6 124.9 73.8 120.1 87.3C115.4 100.7 98.7 108.4 84.5 116.3C70.3 124.2 58.5 132.5 44.8 137.9C31.1 143.3 15.6 145.9 0 148.5L0 0Z" fill="#49eeab"></path></g></svg>